This is my own rip.

General
Unique ID                        : 229732825628255297715514670871943485778 (0xACD4EECC8B9E1CAFA98E64AEED5A9952)
Format                           : Matroska
Format version                   : Version 4 / Version 2
File size                        : 2.09 GiB
Duration                         : 1h 50mn
Overall bit rate mode            : Variable
Overall bit rate                 : 2 718 Kbps
Encoded date                     : UTC 2010-02-22 21:41:31
Writing application              : mkvmerge v5.9.0 ('On The Loose') built on Dec  9 2012 15:37:01
Writing library                  : libebml v1.3.0 + libmatroska v1.4.0

Video
ID                               : 1
Format                           : AVC
Format/Info                      : Advanced Video Codec
Format profile                   : High@L4.1
Format settings, CABAC           : Yes
Format settings, ReFrames        : 7 frames
Codec ID                         : V_MPEG4/ISO/AVC
Duration                         : 1h 50mn
Bit rate mode                    : Variable
Bit rate                         : 2 280 Kbps
Maximum bit rate                 : 13.5 Mbps
Width                            : 1 280 pixels
Height                           : 692 pixels
Display aspect ratio             : 1.850
Frame rate                       : 23.976 fps
Color space                      : YUV
Chroma subsampling               : 4:2:0
Bit depth                        : 8 bits
Scan type                        : Progressive
Bits/(Pixel*Frame)               : 0.107
Stream size                      : 1.76 GiB (84%)
Writing library                  : x264 core 129 r2230 1cffe9f
Language                         : English
Default                          : Yes
Forced                           : No

Audio
ID                               : 2
Format                           : AC-3
Format/Info                      : Audio Coding 3
Mode extension                   : CM (complete main)
Codec ID                         : A_AC3
Duration                         : 1h 50mn
Bit rate mode                    : Constant
Bit rate                         : 384 Kbps
Channel(s)                       : 2 channels
Channel positions                : Front: L R
Sampling rate                    : 48.0 KHz
Bit depth                        : 16 bits
Compression mode                 : Lossy
Stream size                      : 303 MiB (14%)
Language                         : English
Default                          : Yes
Forced                           : No

Menu
00:00:00.000                     : Busy Partners
00:10:29.087                     : Some Inheritance!
00:16:41.834                     : What a Mess!
00:23:46.759                     : "Please! Guilt?"
00:33:38.391                     : No No Nanny
00:40:45.109                     : Here Comes Trouble
00:44:44.348                     : Getting a Head Start
00:50:03.375                     : "Out of Control"
00:56:28.574                     : Going Stir Crazy
01:07:09.631                     : Country Doc
01:10:49.996                     : A "Jar" Is Born
01:13:36.746                     : "Dr. Charm"
01:19:28.806                     : "Baby Food Bonanza"
01:24:29.022                     : Romance in Vermont
01:34:22.971                     : "Savvy Businesswoman"
01:43:17.775                     : Happy Mom
01:45:53.138                     : End Credits
